<?xml version="1.0" encoding="UTF-8"?>
<svg version="1.1" xmlns="http://www.w3.org/2000/svg" width="500" height="500">
<path d="M0 0 C165 0 330 0 500 0 C500 165 500 330 500 500 C335 500 170 500 0 500 C0 335 0 170 0 0 Z " fill="#FEFEFD" transform="translate(0,0)"/>
<path d="M0 0 C64.02 0 128.04 0 194 0 C196.30067568 29.90878378 196.30067568 29.90878378 196.125 42.625 C196.11597656 43.93855469 196.10695313 45.25210938 196.09765625 46.60546875 C196.07479685 49.73720668 196.04245025 52.86847801 196 56 C194.02 56 192.04 56 190 56 C189.75765625 54.865625 189.5153125 53.73125 189.265625 52.5625 C186.72668118 41.01043371 184.15947197 29.88055695 174 22.55859375 C161.43763445 15.04360721 147.98003711 15.4735079 133.8125 15.3125 C131.79099417 15.27927554 129.76950879 15.24478127 127.74804688 15.20898438 C122.832145 15.12466884 117.91628469 15.05758413 113 15 C113.08396584 40.10453338 113.17912355 65.2090029 113.28752708 90.31344318 C113.33760348 101.97042345 113.38404696 113.62739685 113.421875 125.28442383 C113.45486335 135.4471982 113.49473229 145.60991857 113.54279006 155.77263325 C113.56798704 161.15140646 113.58978831 166.53014416 113.60334396 171.90896034 C113.61622615 176.97734866 113.63834642 182.04561477 113.66738319 187.11393547 C113.676411 188.96858011 113.68213792 190.8232444 113.68421364 192.67790985 C112.9202878 210.51194281 112.9202878 210.51194281 120 226 C125.76562115 229.88605283 131.1750573 230.63467839 138 230.75 C138.87011719 230.77964844 139.74023438 230.80929687 140.63671875 230.83984375 C142.75733216 230.90975408 144.87866563 230.95723116 147 231 C147 233.31 147 235.62 147 238 C113.67 238 80.34 238 46 238 C46 235.69 46 233.38 46 231 C47.57587891 230.96132813 47.57587891 230.96132813 49.18359375 230.921875 C58.37933709 230.59220388 66.05592386 230.05667786 73.4375 224 C78.50611966 217.51216683 78.14768767 209.55298538 78.15821838 201.63500977 C78.16315636 200.83188166 78.16809434 200.02875355 78.17318195 199.20128822 C78.18844368 196.53132949 78.19688658 193.86139459 78.20532227 191.19140625 C78.21490971 189.2690663 78.2249203 187.34672842 78.23532104 185.4243927 C78.26228228 180.22050024 78.28333922 175.01659878 78.30332303 169.81267548 C78.32523694 164.3687528 78.35259912 158.92485755 78.37937927 153.48095703 C78.42923322 143.1787336 78.47419905 132.87649488 78.51740164 122.57424164 C78.56683648 110.84270134 78.6217314 99.11118856 78.67708123 87.37967491 C78.7907892 63.25314231 78.89765248 39.12658328 79 15 C72.79221586 15.04443708 66.58542144 15.11456654 60.37817383 15.20751953 C58.2708325 15.23557657 56.16338893 15.25686626 54.0559082 15.27099609 C32.79332538 15.30080081 32.79332538 15.30080081 15 26 C7.71906963 34.49723429 4.7331229 45.00315647 4 56 C1.69 56 -0.62 56 -3 56 C-2.7394191 48.66742016 -2.47223385 41.33510239 -2.20043945 34.00292969 C-2.10874508 31.50819361 -2.01856693 29.01340132 -1.92993164 26.51855469 C-1.80232229 22.93408632 -1.66927495 19.34985497 -1.53515625 15.765625 C-1.49656998 14.64883362 -1.4579837 13.53204224 -1.41822815 12.38140869 C-1.35827919 10.82024323 -1.35827919 10.82024323 -1.29711914 9.22753906 C-1.26380997 8.31264709 -1.23050079 7.39775513 -1.19618225 6.45513916 C-1 4 -1 4 0 0 Z " fill="#020202" transform="translate(155,75)"/>
<path d="M0 0 C19.8 0 39.6 0 60 0 C60 19.8 60 39.6 60 60 C52.17357791 53.29163821 52.17357791 53.29163821 49.17578125 50.09765625 C48.53962891 49.43572266 47.90347656 48.77378906 47.24804688 48.09179688 C45.93842362 46.7187408 44.63652166 45.33828535 43.34179688 43.95117188 C42.70951172 43.29826172 42.07722656 42.64535156 41.42578125 41.97265625 C40.86286377 41.37718994 40.29994629 40.78172363 39.7199707 40.16821289 C38.07998796 38.8096791 38.07998796 38.8096791 36.06835938 39.05224609 C33.302997 40.31937744 31.61849601 42.02750947 29.48046875 44.19140625 C28.62259766 45.05443359 27.76472656 45.91746094 26.88085938 46.80664062 C25.99205078 47.71607422 25.10324219 48.62550781 24.1875 49.5625 C23.31029297 50.44486328 22.43308594 51.32722656 21.52929688 52.23632812 C17.79139907 56.01895769 14.13232985 59.82523785 10.65039062 63.84521484 C5.18773551 70.1256688 -0.69451004 75.99452954 -6.55297852 81.90307617 C-7.98671305 83.35353734 -9.41503793 84.80936406 -10.83813477 86.27026367 C-12.9049447 88.39149448 -14.98741634 90.49611348 -17.07421875 92.59765625 C-17.70970139 93.25580826 -18.34518402 93.91396027 -18.99992371 94.59205627 C-19.59767105 95.18695358 -20.1954184 95.78185089 -20.8112793 96.39477539 C-21.33199509 96.92357803 -21.85271088 97.45238068 -22.38920593 97.99720764 C-24 99 -24 99 -25.96833801 98.87745667 C-28.44891015 97.80611972 -29.81760772 96.50962243 -31.6953125 94.56591797 C-32.40284668 93.84201874 -33.11038086 93.11811951 -33.83935547 92.37228394 C-34.59361816 91.58685211 -35.34788086 90.80142029 -36.125 89.9921875 C-37.73412111 88.3500116 -39.34350406 86.70809223 -40.953125 85.06640625 C-43.48562987 82.46541536 -46.01396133 79.86055771 -48.53710938 77.25048828 C-50.97238883 74.73703351 -53.42262776 72.2389507 -55.875 69.7421875 C-56.6292627 68.95270721 -57.38352539 68.16322693 -58.16064453 67.349823 C-58.86817871 66.63222809 -59.57571289 65.91463318 -60.3046875 65.17529297 C-61.2325708 64.21718216 -61.2325708 64.21718216 -62.17919922 63.23971558 C-63.89162511 61.83023082 -63.89162511 61.83023082 -65.87753296 61.96742249 C-69.02811124 63.50017481 -71.24104146 65.86698446 -73.65478516 68.34594727 C-74.2081102 68.90204681 -74.76143524 69.45814636 -75.33152771 70.03109741 C-77.15762912 71.86947801 -78.97309494 73.71801962 -80.7890625 75.56640625 C-82.05570767 76.84372563 -83.32316494 78.12024017 -84.59140015 79.39598083 C-87.92763031 82.75500134 -91.25562507 86.12204944 -94.58111572 89.49169922 C-99.90989676 94.89065652 -105.24617307 100.28211309 -110.59162521 105.66456413 C-112.4606933 107.55039473 -114.32324583 109.44249792 -116.18545532 111.33509827 C-117.32470938 112.48480775 -118.46421193 113.63427106 -119.60400391 114.78344727 C-120.12352127 115.31486832 -120.64303864 115.84628937 -121.17829895 116.39381409 C-122.4147418 117.6343721 -123.70285501 118.82305907 -125 120 C-125.66 120 -126.32 120 -127 120 C-128.515625 118.42578125 -128.515625 118.42578125 -130.25 116.3125 C-133.25954469 112.76035397 -136.33524535 109.86029631 -140 107 C-138.69316301 104.11669357 -137.30277863 102.05435892 -135.0640564 99.82354736 C-134.46390213 99.22064377 -133.86374786 98.61774017 -133.2454071 97.99656677 C-132.58869522 97.34704544 -131.93198334 96.69752411 -131.25537109 96.02832031 C-130.56257553 95.3352327 -129.86977997 94.64214508 -129.1559906 93.92805481 C-126.86651526 91.63997201 -124.5700387 89.35905349 -122.2734375 87.078125 C-120.68402291 85.4924408 -119.09504952 83.90631426 -117.50650024 82.31976318 C-113.32532415 78.14622146 -109.13817654 73.97872083 -104.94976807 69.81243896 C-100.67643937 65.55957281 -96.40877027 61.30103581 -92.140625 57.04296875 C-83.76595419 48.68974441 -75.38496557 40.34288952 -67 32 C-63.85059453 33.50332688 -61.70914984 35.04641953 -59.24121094 37.53173828 C-58.52076599 38.25233429 -57.80032104 38.9729303 -57.05804443 39.71536255 C-56.29123352 40.49249603 -55.52442261 41.26962952 -54.734375 42.0703125 C-53.94097717 42.86654022 -53.14757935 43.66276794 -52.33013916 44.48312378 C-49.79869297 47.02575948 -47.27429197 49.57526348 -44.75 52.125 C-43.03431383 53.85071753 -41.31817338 55.57598355 -39.6015625 57.30078125 C-35.39575752 61.52863032 -31.19571493 65.76213869 -27 70 C-23.46760977 68.49315032 -21.2037834 66.44633388 -18.50683594 63.73388672 C-17.62622498 62.85312469 -16.74561401 61.97236267 -15.83831787 61.06491089 C-14.88689569 60.10327649 -13.93558397 59.1415328 -12.984375 58.1796875 C-12.00403871 57.19561893 -11.02325832 56.21199258 -10.04205322 55.22879028 C-7.46645533 52.64557286 -4.89692143 50.05640488 -2.32861328 47.46594238 C0.29551067 44.8213238 2.92533771 42.1823899 5.5546875 39.54296875 C10.7087167 34.36751928 15.85635157 29.18576878 21 24 C19.34289298 20.47789059 17.44353938 18.22346761 14.6484375 15.48828125 C13.79765625 14.64845703 12.946875 13.80863281 12.0703125 12.94335938 C11.18085938 12.07517578 10.29140625 11.20699219 9.375 10.3125 C7.60985394 8.58159169 5.84671306 6.84863528 4.0859375 5.11328125 C3.3026709 4.34798096 2.5194043 3.58268066 1.71240234 2.79418945 C0 1 0 1 0 0 Z " fill="#040404" transform="translate(270,330)"/>
<path d="M0 0 C4.77253915 3.44501328 5.86983635 10.38525626 7.6875 15.6875 C8.31108398 17.42676758 8.31108398 17.42676758 8.94726562 19.20117188 C12.96089654 30.7939088 12.96089654 30.7939088 12 37 C8.78514661 40.89904014 3.03686699 41.68884991 -1.6875 43.01757812 C-5.63260251 44.11484137 -5.63260251 44.11484137 -8.20849609 47.08618164 C-8.46969238 47.7177417 -8.73088867 48.34930176 -9 49 C-8.03960815 48.68192383 -8.03960815 48.68192383 -7.05981445 48.35742188 C-4.14649735 47.39730651 -1.22959867 46.44856065 1.6875 45.5 C2.69490234 45.16613281 3.70230469 44.83226562 4.74023438 44.48828125 C5.71669922 44.17246094 6.69316406 43.85664063 7.69921875 43.53125 C8.59471436 43.23798828 9.49020996 42.94472656 10.4128418 42.64257812 C13.20312306 41.94954988 15.15243812 41.51941824 18 42 C21.38549053 45.30493815 22.87762439 48.74471145 24.359375 53.18359375 C24.75253906 54.35857422 25.14570313 55.53355469 25.55078125 56.74414062 C25.94652344 57.96294922 26.34226562 59.18175781 26.75 60.4375 C27.16121094 61.65244141 27.57242188 62.86738281 27.99609375 64.11914062 C31.42487082 74.51368904 31.42487082 74.51368904 31 80 C28.41287129 82.94261204 25.2807351 83.57722684 21.56762695 84.53417969 C15.03381541 86.19104152 15.03381541 86.19104152 10.046875 90.51171875 C8.77666521 93.19551302 8.77666521 93.19551302 7.95703125 95.890625 C7 98 7 98 5.06640625 98.91796875 C3 99 3 99 0.125 97.0625 C-3.52422586 94.65401093 -4.72046612 94.4239089 -9 95 C-11.54846093 95.72872657 -14.07124736 96.5226063 -16.59765625 97.32421875 C-19.51831665 98.1458029 -21.98673253 98.36747164 -25 98 C-29.84058219 94.77294521 -30.7376641 89.17087797 -32.55371094 83.84350586 C-33.24377291 81.83066381 -33.9604487 79.82874383 -34.6796875 77.82617188 C-35.12665991 76.53703266 -35.57202418 75.24733453 -36.015625 73.95703125 C-36.42071289 72.79147705 -36.82580078 71.62592285 -37.24316406 70.42504883 C-38.09391874 66.57497227 -37.86511529 63.82860163 -37 60 C-35.57421875 58.546875 -35.57421875 58.546875 -33.6875 57.75 C-32.97980469 57.4509375 -32.27210937 57.151875 -31.54296875 56.84375 C-26.768603 55.25962864 -21.90998178 54.08019599 -17 53 C-17.928125 51.453125 -17.928125 51.453125 -18.875 49.875 C-20.70698045 46.68527517 -21.9635747 43.54111979 -23 40 C-29.3092796 40.56287424 -34.78826672 42.06215977 -40.75 44.16015625 C-41.64871826 44.46948593 -42.54743652 44.77881561 -43.47338867 45.09751892 C-46.31818272 46.0785363 -49.15908155 47.07032236 -52 48.0625 C-53.93855404 48.73313929 -55.8773539 49.40306846 -57.81640625 50.07226562 C-62.54715351 51.70664441 -67.27444015 53.35068571 -72 55 C-71.46877587 59.23806767 -70.78042634 63.13980403 -69.37109375 67.171875 C-69.05849609 68.08324219 -68.74589844 68.99460937 -68.42382812 69.93359375 C-68.09833984 70.86300781 -67.77285156 71.79242188 -67.4375 72.75 C-66.78624954 74.61836237 -66.13892848 76.4881004 -65.49609375 78.359375 C-65.20919678 79.17889648 -64.9222998 79.99841797 -64.62670898 80.84277344 C-64 83 -64 83 -64 86 C-62.90300781 85.6390625 -61.80601563 85.278125 -60.67578125 84.90625 C-59.22147684 84.43711954 -57.76704285 83.96839065 -56.3125 83.5 C-55.2306543 83.14228516 -55.2306543 83.14228516 -54.12695312 82.77734375 C-49.12532011 81.17864827 -45.33961771 79.97534991 -40.32421875 82.171875 C-39.45410156 82.69265625 -38.58398438 83.2134375 -37.6875 83.75 C-36.80449219 84.26046875 -35.92148438 84.7709375 -35.01171875 85.296875 C-34.34785156 85.85890625 -33.68398437 86.4209375 -33 87 C-33 88.32 -33 89.64 -33 91 C-36.3300036 90.61279028 -38.57835402 90.28849462 -41.375 88.375 C-45.04745169 86.45133483 -48.11360422 87.09189168 -52 88 C-52.99 88.350625 -53.98 88.70125 -55 89.0625 C-59.02982419 90.32182006 -61.77913033 90.48436209 -66 90 C-70.00710929 84.62058461 -71.64240625 77.84871416 -73.75 71.5625 C-74.17410156 70.34755859 -74.59820312 69.13261719 -75.03515625 67.88085938 C-75.62876953 66.11645508 -75.62876953 66.11645508 -76.234375 64.31640625 C-76.59756836 63.24849854 -76.96076172 62.18059082 -77.33496094 61.08032227 C-78.08256113 57.61759407 -78.02305448 55.38715207 -77 52 C-75.47973633 50.65332031 -75.47973633 50.65332031 -73.51953125 49.828125 C-72.43599365 49.36116211 -72.43599365 49.36116211 -71.33056641 48.88476562 C-67.47296446 47.42028318 -63.61237254 46.02468934 -59.6875 44.75 C-58.89021484 44.481875 -58.09292969 44.21375 -57.27148438 43.9375 C-51.39473055 42 -51.39473055 42 -48 42 C-48 41.34 -48 40.68 -48 40 C-48.61359375 39.79761719 -49.2271875 39.59523437 -49.859375 39.38671875 C-54.32402059 36.49447571 -54.8560577 29.92188508 -56 25 C-56.40865467 22.34598998 -56.40943179 20.69055178 -56 18 C-53.82433308 15.24329906 -51.61704076 14.28388242 -48.33251953 13.17480469 C-47.38788849 12.85147156 -46.44325745 12.52813843 -45.47000122 12.19500732 C-44.45122894 11.85737366 -43.43245667 11.51973999 -42.3828125 11.171875 C-41.33350555 10.81861145 -40.28419861 10.4653479 -39.20309448 10.10137939 C-36.98375532 9.35731825 -34.76285121 8.6179111 -32.54052734 7.8828125 C-29.14011788 6.75501408 -25.74776658 5.60505896 -22.35546875 4.453125 C-20.19836948 3.73301716 -18.04083115 3.01422295 -15.8828125 2.296875 C-14.36072678 1.77827911 -14.36072678 1.77827911 -12.80789185 1.24920654 C-11.85695648 0.93848206 -10.90602112 0.62775757 -9.92626953 0.30761719 C-9.09370636 0.03020691 -8.26114319 -0.24720337 -7.40335083 -0.53302002 C-4.60874984 -1.07602136 -2.72262132 -0.77903145 0 0 Z " fill="#F7F7F7" transform="translate(156,205)"/>
<path d="M0 0 C43.23 0 86.46 0 131 0 C131.6266104 5.63949356 132.12267806 10.6427935 132.09765625 16.22265625 C132.09443359 17.50205078 132.09121094 18.78144531 132.08789062 20.09960938 C132.07951172 21.40736328 132.07113281 22.71511719 132.0625 24.0625 C132.05747314 25.41861813 132.05291234 26.77473808 132.04882812 28.13085938 C132.03712079 31.42061994 132.02072211 34.71028594 132 38 C130.68 38 129.36 38 128 38 C127.85304688 37.154375 127.70609375 36.30875 127.5546875 35.4375 C125.74949705 26.30780117 123.30845797 20.6382534 116.1875 14.625 C107.82099373 10.35972229 98.62373553 10.6005444 89.4375 10.375 C88.14263672 10.33632812 86.84777344 10.29765625 85.51367188 10.2578125 C82.34258424 10.16420106 79.17149245 10.07846597 76 10 C76.06066403 26.76003495 76.13825474 43.51989425 76.23571491 60.27975178 C76.28058268 68.06254531 76.32001786 75.845294 76.34643555 83.62817383 C76.36948899 90.41578219 76.40296824 97.20324758 76.44870156 103.99074239 C76.47253534 107.58101591 76.49132828 111.17114871 76.49761391 114.7614994 C76.50484594 118.78041172 76.53536557 122.79883752 76.56762695 126.81762695 C76.56619186 127.99367493 76.56475677 129.1697229 76.5632782 130.38140869 C76.64429449 137.54705541 77.3180632 144.28887892 80 151 C83.55142081 154.36483128 87.55123214 154.6090282 92.3125 155.1875 C93.56675781 155.34605469 94.82101562 155.50460937 96.11328125 155.66796875 C97.06589844 155.77753906 98.01851563 155.88710938 99 156 C99 157.32 99 158.64 99 160 C76.56 160 54.12 160 31 160 C31 158.68 31 157.36 31 156 C31.72445312 155.96261719 32.44890625 155.92523438 33.1953125 155.88671875 C38.84607022 155.50246722 43.02913036 154.93153851 48 152 C48.66 152 49.32 152 50 152 C53.5971755 144.0862139 53.16409893 135.79814302 53.20532227 127.27172852 C53.21522186 126.00274216 53.22512146 124.7337558 53.23532104 123.42631531 C53.2622242 119.96405008 53.28331219 116.50177142 53.30332303 113.03946042 C53.3252732 109.41462368 53.35261748 105.78982764 53.37937927 102.1650238 C53.42918457 95.30874798 53.47416823 88.45244943 53.51740164 81.59612936 C53.56687833 73.78714074 53.62175759 65.97819298 53.67708123 58.16924393 C53.79071442 42.112867 53.89759369 26.05645254 54 10 C49.89180534 10.06952625 45.78445543 10.15779354 41.67700195 10.26245117 C40.28355638 10.29543308 38.88998578 10.32354567 37.49633789 10.34643555 C28.36615144 10.50040712 20.32100871 10.9766996 12.25 15.5625 C6.41585241 21.88282656 4.19061874 29.64789839 3 38 C1.68 38 0.36 38 -1 38 C-1.02808059 35.41658599 -1.04732843 32.83350151 -1.0625 30.25 C-1.07087891 29.5590625 -1.07925781 28.868125 -1.08789062 28.15625 C-1.12851673 18.73099382 -0.47288053 9.4576107 0 0 Z " fill="#020202" transform="translate(310,221)"/>
<path d="M0 0 C3.12259391 5.61680205 4.92873734 11.5624056 6.8125 17.6875 C7.14958984 18.73228516 7.48667969 19.77707031 7.83398438 20.85351562 C8.29708008 22.35495117 8.29708008 22.35495117 8.76953125 23.88671875 C9.05417236 24.79639404 9.33881348 25.70606934 9.63208008 26.64331055 C10 29 10 29 8 32 C5.49103023 33.02142691 3.07745293 33.89017577 0.5 34.6875 C-0.18964844 34.91244141 -0.87929687 35.13738281 -1.58984375 35.36914062 C-6.67574563 37 -6.67574563 37 -9 37 C-9.99 39.97 -10.98 42.94 -12 46 C-15.37462715 45.45276317 -17.08235 44.9451 -20 43 C-24.66178907 42.80690814 -29.0207516 43.8809749 -33.3125 45.625 C-37 47 -37 47 -39.109375 46.87109375 C-41 46 -41 46 -42.08984375 44.05859375 C-42.36957031 43.19363281 -42.64929688 42.32867187 -42.9375 41.4375 C-43.25976562 40.45523438 -43.58203125 39.47296875 -43.9140625 38.4609375 C-44.27242187 37.31882812 -44.63078125 36.17671875 -45 35 C-45.46426567 33.61655512 -45.93050544 32.23377158 -46.3984375 30.8515625 C-46.87116986 29.42233012 -47.34253259 27.99264396 -47.8125 26.5625 C-48.04380615 25.87663818 -48.2751123 25.19077637 -48.51342773 24.48413086 C-50.44155692 18.43420597 -50.44155692 18.43420597 -49 15 C-47.34341431 13.99421692 -47.34341431 13.99421692 -45.17041016 13.27661133 C-44.35931793 12.99985062 -43.54822571 12.7230899 -42.71255493 12.4379425 C-41.83030243 12.15549179 -40.94804993 11.87304108 -40.0390625 11.58203125 C-39.13755463 11.27931808 -38.23604675 10.97660492 -37.30722046 10.66471863 C-34.41802686 9.69851499 -31.52189394 8.75533435 -28.625 7.8125 C-26.67918822 7.16621483 -24.73386841 6.5184464 -22.7890625 5.86914062 C-18.50065505 4.44062121 -14.207799 3.02652693 -9.91055298 1.62483215 C-6.38874771 0.47305191 -3.71271338 -0.1003436 0 0 Z " fill="#F8F8F8" transform="translate(173,252)"/>
<path d="M0 0 C0.81436868 1.76997474 1.6264294 3.54101152 2.4375 5.3125 C2.88996094 6.29863281 3.34242188 7.28476563 3.80859375 8.30078125 C5 11 5 11 6 14 C4.80761719 14.39832031 3.61523438 14.79664063 2.38671875 15.20703125 C0.82015512 15.74172662 -0.74624258 16.27690833 -2.3125 16.8125 C-3.49102539 17.20405273 -3.49102539 17.20405273 -4.69335938 17.60351562 C-5.8293457 17.99506836 -5.8293457 17.99506836 -6.98828125 18.39453125 C-8.03302612 18.74801636 -8.03302612 18.74801636 -9.09887695 19.10864258 C-11.26965436 20.1264297 -12.52679844 21.10911132 -14 23 C-13.77656067 28.73013759 -11.82078006 33.95105074 -9.9375 39.3125 C-9.3814818 40.91184755 -8.8279688 42.51206894 -8.27734375 44.11328125 C-7.90984009 45.16189331 -7.90984009 45.16189331 -7.53491211 46.23168945 C-7 48 -7 48 -7 50 C-7.99 50.33 -8.98 50.66 -10 51 C-10 50.01 -10 49.02 -10 48 C-10.721875 47.731875 -11.44375 47.46375 -12.1875 47.1875 C-15 46 -15 46 -17.3125 44.3125 C-21.76703536 42.13702924 -25.84482731 43.32296384 -30.375 44.74609375 C-31.89792246 45.26959835 -33.41446776 45.81227295 -34.921875 46.37890625 C-37 47 -37 47 -41 47 C-42.31558834 43.25158406 -43.61507481 39.49800469 -44.90014648 35.73901367 C-45.33915493 34.46211886 -45.78246855 33.18669551 -46.23022461 31.9128418 C-46.87453771 30.07737368 -47.50192142 28.23599062 -48.12890625 26.39453125 C-48.51119385 25.28956299 -48.89348145 24.18459473 -49.28735352 23.04614258 C-50.48495636 17.92709816 -50.48495636 17.92709816 -49 15 C-46.16900577 13.37278251 -43.14410967 12.46028241 -40.0390625 11.484375 C-39.13755463 11.18307678 -38.23604675 10.88177856 -37.30722046 10.5713501 C-34.41923732 9.61115557 -31.52270986 8.68037802 -28.625 7.75 C-26.67905529 7.108686 -24.73373319 6.46547944 -22.7890625 5.8203125 C-18.50179034 4.40201349 -14.20899873 3.00214919 -9.91055298 1.61810303 C-6.38780531 0.47842199 -3.71117501 -0.10030203 0 0 Z " fill="#F6F6F6" transform="translate(133,244)"/>
<path d="M0 0 C3.23589674 3.46212525 4.86792546 6.71565633 6.359375 11.18359375 C6.94912109 12.94606445 6.94912109 12.94606445 7.55078125 14.74414062 C8.14439453 16.57235352 8.14439453 16.57235352 8.75 18.4375 C9.16121094 19.65244141 9.57242188 20.86738281 9.99609375 22.11914062 C13.42487082 32.51368904 13.42487082 32.51368904 13 38 C10.41287129 40.94261204 7.2807351 41.57722684 3.56762695 42.53417969 C-2.96618459 44.19104152 -2.96618459 44.19104152 -7.953125 48.51171875 C-9.22333479 51.19551302 -9.22333479 51.19551302 -10.04296875 53.890625 C-11 56 -11 56 -12.93359375 56.91796875 C-15 57 -15 57 -17.875 55.0625 C-21.52422586 52.65401093 -22.72046612 52.4239089 -27 53 C-29.54846093 53.72872657 -32.07124736 54.5226063 -34.59765625 55.32421875 C-37.51831665 56.1458029 -39.98673253 56.36747164 -43 56 C-47.84058219 52.77294521 -48.7376641 47.17087797 -50.55371094 41.84350586 C-51.24377291 39.83066381 -51.9604487 37.82874383 -52.6796875 35.82617188 C-53.12665991 34.53703266 -53.57202418 33.24733453 -54.015625 31.95703125 C-54.42071289 30.79147705 -54.82580078 29.62592285 -55.24316406 28.42504883 C-56.13992909 24.36675316 -56.34239416 21.95924637 -55 18 C-52.55602245 16.07940376 -49.90400081 15.05928814 -47 14 C-46.31774353 13.74184509 -45.63548706 13.48369019 -44.93255615 13.2177124 C-42.81889076 12.45312819 -40.69298953 11.74722343 -38.5546875 11.0546875 C-37.39442551 10.6707634 -37.39442551 10.6707634 -36.21072388 10.27908325 C-33.76732407 9.47199799 -31.32126999 8.67333796 -28.875 7.875 C-27.22767935 7.3325935 -25.58054224 6.78962924 -23.93359375 6.24609375 C-20.24702522 5.03043289 -16.55877657 3.82005491 -12.86859131 2.61541748 C-11.1262289 2.04157328 -9.38928567 1.45134676 -7.65283203 0.85986328 C-4.79633201 -0.06601497 -2.96436499 -0.54606723 0 0 Z M-10.37548828 6.25341797 C-11.20629913 6.52725311 -12.03710999 6.80108826 -12.89309692 7.08322144 C-13.77657806 7.38318024 -14.6600592 7.68313904 -15.5703125 7.9921875 C-16.48835663 8.29818878 -17.40640076 8.60419006 -18.3522644 8.91946411 C-20.28828947 9.56658971 -22.22309299 10.21737986 -24.15673828 10.87158203 C-27.11842931 11.87277879 -30.08418992 12.86108644 -33.05078125 13.84765625 C-34.93254609 14.47840814 -36.8140652 15.10989369 -38.6953125 15.7421875 C-39.5828421 16.03809784 -40.4703717 16.33400818 -41.38479614 16.6388855 C-42.62155594 17.0590947 -42.62155594 17.0590947 -43.88330078 17.48779297 C-44.60768341 17.73206024 -45.33206604 17.97632751 -46.07839966 18.22799683 C-48.27042876 19.03256628 -48.27042876 19.03256628 -51 21 C-49.91826383 27.70676428 -48.13599155 34.00380599 -46 40.4375 C-45.73880371 41.23075684 -45.47760742 42.02401367 -45.20849609 42.84130859 C-44.95406738 43.5936377 -44.69963867 44.3459668 -44.4375 45.12109375 C-44.20933594 45.7958374 -43.98117188 46.47058105 -43.74609375 47.16577148 C-42.95664737 49.2820384 -42.95664737 49.2820384 -41 52 C-37.70046446 51.46781685 -34.69752968 50.56017955 -31.5625 49.4375 C-27.88660193 48.20000861 -24.91126135 47.46664618 -21 48 C-19.30280873 48.94726954 -17.63064764 49.94228261 -16 51 C-15.01 51 -14.02 51 -13 51 C-12.86658203 50.07767578 -12.86658203 50.07767578 -12.73046875 49.13671875 C-12.1241673 46.40181939 -11.49098253 44.38302335 -10 42 C-6.47439619 40.29739133 -2.82380265 39.74026263 1 39 C5.81661746 37.54464133 5.81661746 37.54464133 9 34 C8.55324574 32.05394361 8.0078026 30.13022562 7.41796875 28.22265625 C7.06283203 27.06958984 6.70769531 25.91652344 6.34179688 24.72851562 C5.96087891 23.51873047 5.57996094 22.30894531 5.1875 21.0625 C4.81818359 19.85658203 4.44886719 18.65066406 4.06835938 17.40820312 C2.14385563 10.92474346 2.14385563 10.92474346 -1 5 C-4.40834433 4.61468967 -7.15118279 5.17560797 -10.37548828 6.25341797 Z " fill="#0E0E0E" transform="translate(174,247)"/>
<path d="M0 0 C4.87929246 1.68898585 8.50059555 4.43759505 11 9 C12.55255907 13.87431336 12.4536566 17.7464703 10.25 22.375 C7.73574024 26.9344412 5.04891148 29.50827615 0 31 C-5.46151791 31.5056961 -9.18777861 30.63310227 -14 28 C-18.72364213 22.90343875 -19.35728376 19.55661992 -19.27734375 12.76171875 C-18.75063918 7.51692813 -16.11562881 4.98590453 -12.3125 1.625 C-8.01507138 -0.48317253 -4.69964191 -0.68466006 0 0 Z " fill="#F2F2F2" transform="translate(157,261)"/>
<path d="M0 0 C3.2350871 2.20671504 3.77462084 4.99251291 4.6875 8.6875 C4.93886719 9.68136719 5.19023437 10.67523438 5.44921875 11.69921875 C5.63097656 12.45847656 5.81273437 13.21773437 6 14 C4.68 14.33 3.36 14.66 2 15 C0.68 11.7 -0.64 8.4 -2 5 C-8.3092796 5.56287424 -13.78826672 7.06215977 -19.75 9.16015625 C-20.64871826 9.46948593 -21.54743652 9.77881561 -22.47338867 10.09751892 C-25.31818272 11.0785363 -28.15908155 12.07032236 -31 13.0625 C-32.93855404 13.73313929 -34.8773539 14.40306846 -36.81640625 15.07226562 C-41.54715351 16.70664441 -46.27444015 18.35068571 -51 20 C-50.46877587 24.23806767 -49.78042634 28.13980403 -48.37109375 32.171875 C-48.05849609 33.08324219 -47.74589844 33.99460937 -47.42382812 34.93359375 C-47.09833984 35.86300781 -46.77285156 36.79242188 -46.4375 37.75 C-45.78624954 39.61836237 -45.13892848 41.4881004 -44.49609375 43.359375 C-44.20919678 44.17889648 -43.9222998 44.99841797 -43.62670898 45.84277344 C-43 48 -43 48 -43 51 C-41.35451172 50.45859375 -41.35451172 50.45859375 -39.67578125 49.90625 C-38.22147684 49.43711954 -36.76704285 48.96839065 -35.3125 48.5 C-34.59126953 48.26152344 -33.87003906 48.02304687 -33.12695312 47.77734375 C-28.12532011 46.17864827 -24.33961771 44.97534991 -19.32421875 47.171875 C-18.45410156 47.69265625 -17.58398438 48.2134375 -16.6875 48.75 C-15.80449219 49.26046875 -14.92148438 49.7709375 -14.01171875 50.296875 C-13.34785156 50.85890625 -12.68398437 51.4209375 -12 52 C-12 53.32 -12 54.64 -12 56 C-15.3300036 55.61279028 -17.57835402 55.28849462 -20.375 53.375 C-24.04745169 51.45133483 -27.11360422 52.09189168 -31 53 C-31.99 53.350625 -32.98 53.70125 -34 54.0625 C-38.02982419 55.32182006 -40.77913033 55.48436209 -45 55 C-49.00710929 49.62058461 -50.64240625 42.84871416 -52.75 36.5625 C-53.17410156 35.34755859 -53.59820312 34.13261719 -54.03515625 32.88085938 C-54.62876953 31.11645508 -54.62876953 31.11645508 -55.234375 29.31640625 C-55.59756836 28.24849854 -55.96076172 27.18059082 -56.33496094 26.08032227 C-57.11852362 22.45102329 -57.35553686 20.4857088 -56 17 C-53.54310488 15.14412128 -50.86371726 14.09250029 -48 13 C-47.24088318 12.70813812 -46.48176636 12.41627625 -45.699646 12.11557007 C-43.2263519 11.20619671 -40.73989342 10.35164579 -38.2421875 9.51171875 C-37.33550323 9.20426224 -36.42881897 8.89680573 -35.49465942 8.58003235 C-33.59142364 7.93746154 -31.68709622 7.2981158 -29.78173828 6.66186523 C-26.87167219 5.68638449 -23.96918456 4.69028552 -21.06640625 3.69335938 C-19.20876139 3.06903739 -17.35070193 2.44594738 -15.4921875 1.82421875 C-14.62955292 1.52537277 -13.76691833 1.22652679 -12.87814331 0.91862488 C-8.21623249 -0.61201288 -4.86597041 -1.45351458 0 0 Z " fill="#0F0F0F" transform="translate(135,240)"/>
<path d="M0 0 C4.77253915 3.44501328 5.86983635 10.38525626 7.6875 15.6875 C8.31108398 17.42676758 8.31108398 17.42676758 8.94726562 19.20117188 C12.96089654 30.7939088 12.96089654 30.7939088 12 37 C8.7774372 40.90012729 3.03068033 41.72039687 -1.6875 43.10546875 C-6.08989853 44.45314268 -6.08989853 44.45314268 -9 48 C-9.99 47.67 -10.98 47.34 -12 47 C-11.67 45.02 -11.34 43.04 -11 41 C-8.20964954 39.99619084 -5.41785145 38.9968055 -2.625 38 C-1.43390625 37.57074219 -1.43390625 37.57074219 -0.21875 37.1328125 C0.54179687 36.86210937 1.30234375 36.59140625 2.0859375 36.3125 C2.7876709 36.06113281 3.4894043 35.80976563 4.21240234 35.55078125 C6 35 6 35 8 35 C4.7 25.1 1.4 15.2 -2 5 C-8.59247393 5.74682678 -8.59247393 5.74682678 -14.671875 7.39868164 C-15.90224487 7.81900414 -15.90224487 7.81900414 -17.1574707 8.24781799 C-18.01300537 8.54888962 -18.86854004 8.84996124 -19.75 9.16015625 C-20.64871826 9.46948593 -21.54743652 9.77881561 -22.47338867 10.09751892 C-25.31818272 11.0785363 -28.15908155 12.07032236 -31 13.0625 C-32.93855404 13.73313929 -34.8773539 14.40306846 -36.81640625 15.07226562 C-41.54715351 16.70664441 -46.27444015 18.35068571 -51 20 C-50.69421774 21.43289453 -50.38494488 22.86504443 -50.07421875 24.296875 C-49.90237061 25.09448242 -49.73052246 25.89208984 -49.5534668 26.71386719 C-48.99884603 29.19228091 -48.99884603 29.19228091 -47.8125 32.25 C-46.91490938 35.28799902 -47.11605901 36.99460063 -48 40 C-49.859375 39.38671875 -49.859375 39.38671875 -52 38 C-54.77137014 31.88416774 -57.02533318 24.73790377 -56 18 C-53.82433308 15.24329906 -51.61704076 14.28388242 -48.33251953 13.17480469 C-46.91557297 12.68980499 -46.91557297 12.68980499 -45.47000122 12.19500732 C-44.45122894 11.85737366 -43.43245667 11.51973999 -42.3828125 11.171875 C-41.33350555 10.81861145 -40.28419861 10.4653479 -39.20309448 10.10137939 C-36.98375532 9.35731825 -34.76285121 8.6179111 -32.54052734 7.8828125 C-29.14011788 6.75501408 -25.74776658 5.60505896 -22.35546875 4.453125 C-20.19836948 3.73301716 -18.04083115 3.01422295 -15.8828125 2.296875 C-14.36072678 1.77827911 -14.36072678 1.77827911 -12.80789185 1.24920654 C-11.85695648 0.93848206 -10.90602112 0.62775757 -9.92626953 0.30761719 C-9.09370636 0.03020691 -8.26114319 -0.24720337 -7.40335083 -0.53302002 C-4.60874984 -1.07602136 -2.72262132 -0.77903145 0 0 Z " fill="#0C0C0C" transform="translate(156,205)"/>
<path d="M0 0 C4.87929246 1.68898585 8.50059555 4.43759505 11 9 C12.55255907 13.87431336 12.4536566 17.7464703 10.25 22.375 C7.73574024 26.9344412 5.04891148 29.50827615 0 31 C-5.46151791 31.5056961 -9.18777861 30.63310227 -14 28 C-18.72364213 22.90343875 -19.35728376 19.55661992 -19.27734375 12.76171875 C-18.75063918 7.51692813 -16.11562881 4.98590453 -12.3125 1.625 C-8.01507138 -0.48317253 -4.69964191 -0.68466006 0 0 Z M-14.375 9.8125 C-15.61245226 14.14358292 -15.59749517 17.71965322 -13.6875 21.8125 C-11.65975696 24.44105579 -10.02207843 25.83542805 -6.6953125 26.37109375 C-0.88091383 26.54381077 -0.88091383 26.54381077 4.0625 23.625 C7.12170001 19.48027741 7.70497052 16.101245 7 11 C4.66753943 7.0261783 2.44488392 5.19252983 -2 4 C-7.27312723 3.18874966 -11.1971228 5.62348005 -14.375 9.8125 Z " fill="#0F0F0F" transform="translate(157,261)"/>
<path d="M0 0 C1.8125 1.3125 1.8125 1.3125 3 3 C3 3.99 3 4.98 3 6 C1.783125 5.896875 0.56625 5.79375 -0.6875 5.6875 C-2.9050625 5.60095134 -2.9050625 5.60095134 -5 6 C-6.2065625 7.2684375 -6.2065625 7.2684375 -7.4375 8.5625 C-10 11 -10 11 -12.3046875 11.109375 C-14.57084887 10.84110668 -16.7719547 10.49026705 -19 10 C-19.33 11.65 -19.66 13.3 -20 15 C-14.44805341 18.55506117 -8.79090478 21.84985504 -3 25 C-3.33 26.32 -3.66 27.64 -4 29 C-11.51956333 26.96768559 -19.96704391 23.09985001 -25 17 C-25.7295645 14.25340424 -25.55218306 11.77799312 -25 9 C-23.4375 6.5 -23.4375 6.5 -21 5 C-17.22717474 4.66905042 -14.59264452 4.80245183 -11 6 C-10.62875 5.071875 -10.62875 5.071875 -10.25 4.125 C-7.88440505 0.10348859 -4.47225447 -0.57336596 0 0 Z " fill="#0C0C0C" transform="translate(122,254)"/>
<path d="M0 0 C-0.33 1.65 -0.66 3.3 -1 5 C-5.05864282 6.34527797 -9.12248583 7.67411108 -13.1875 9 C-14.33798828 9.3815625 -15.48847656 9.763125 -16.67382812 10.15625 C-17.78564453 10.5171875 -18.89746094 10.878125 -20.04296875 11.25 C-21.06414795 11.58515625 -22.08532715 11.9203125 -23.13745117 12.265625 C-25.89670974 12.97350131 -28.16784522 13.14558868 -31 13 C-30.8527832 11.14746094 -30.8527832 11.14746094 -30 9 C-27.56323242 7.71972656 -27.56323242 7.71972656 -24.35546875 6.640625 C-23.20369141 6.24746094 -22.05191406 5.85429687 -20.86523438 5.44921875 C-19.04475586 4.85560547 -19.04475586 4.85560547 -17.1875 4.25 C-15.38442383 3.63318359 -15.38442383 3.63318359 -13.54492188 3.00390625 C-4.59807153 0 -4.59807153 0 0 0 Z " fill="#0F0F0F" transform="translate(143,217)"/>
<path d="M0 0 C-0.50390625 1.828125 -0.50390625 1.828125 -2 4 C-4.68440481 5.1099824 -7.16082703 5.97341072 -9.9375 6.75 C-10.66646484 6.97042969 -11.39542969 7.19085938 -12.14648438 7.41796875 C-15.18273203 8.31409317 -17.81959724 9 -21 9 C-20.67 7.35 -20.34 5.7 -20 4 C-17.60872043 3.13071724 -15.21338274 2.27948399 -12.8125 1.4375 C-12.13896484 1.19064453 -11.46542969 0.94378906 -10.77148438 0.68945312 C-6.7993992 -0.68624467 -4.04514201 -1.31172566 0 0 Z " fill="#121212" transform="translate(136,230)"/>
<path d="M0 0 C1.32 0.33 2.64 0.66 4 1 C3.6875 4.375 3.6875 4.375 3 8 C0 10 0 10 -3.5625 9.8125 C-7 9 -7 9 -9 6 C-9 5.01 -9 4.02 -9 3 C-7.68 3 -6.36 3 -5 3 C-4.67 3.66 -4.34 4.32 -4 5 C-3.01 5 -2.02 5 -1 5 C-0.67 3.35 -0.34 1.7 0 0 Z " fill="#090909" transform="translate(156,274)"/>
<path d="M0 0 C0.99 0.33 1.98 0.66 3 1 C2.34 1 1.68 1 1 1 C0.01 3.97 -0.98 6.94 -2 10 C-6.12751449 9.39301257 -9.3321148 7.96189209 -13 6 C-10.65547166 3.65547166 -9.10275052 3.3073746 -5.9375 2.4375 C-2.6878857 1.7288742 -2.6878857 1.7288742 0 0 Z " fill="#EFEFEF" transform="translate(163,288)"/>
<path d="M0 0 C0.33 0.66 0.66 1.32 1 2 C-1.97 2.66 -4.94 3.32 -8 4 C-8.33 3.01 -8.66 2.02 -9 1 C-3.375 -1.125 -3.375 -1.125 0 0 Z " fill="#E1E1E1" transform="translate(153,259)"/>
</svg>
